<svg class="vcyc-icon" version="1.1" xmlns="http://www.w3.org/2000/svg" xmlns:xlink="http://www.w3.org/1999/xlink" x="0px" y="0px" viewBox="0 0 512 512" width="20" height="20"><g><path style="fill: #fff;" d="M438.9,146.3c0-40.9-32.2-73.1-73.1-73.1s-73.1,32.2-73.1,73.1c0,26.7,14.9,50.3,36.2,62.9v11
            c-0.8,18.9-8.7,35.4-22.8,50.3c-14.9,14.9-31.5,22-50.3,22.8c-30.7,0.8-54.3,5.5-73.1,16.5V136.1c21.2-12.6,36.2-35.4,36.2-62.9
            c0-40.9-32.2-73.1-73.1-73.1S73.1,32.2,73.1,73.1c0,26.7,14.9,50.3,36.2,62.9v239.9c-21.2,12.6-36.2,36.2-36.2,62.9
            c0,40.9,32.2,73.1,73.1,73.1s73.1-32.2,73.1-73.1c0-19.7-7.1-36.2-19.7-49.5c3.1-2.4,17.3-14.9,21.2-17.3
            c9.4-3.9,20.4-6.3,34.6-6.3c38.5-1.6,71.6-16.5,100.7-45.6c29.1-29.1,44-72.4,45.6-110.1h-0.8C423.9,195.8,438.9,173,438.9,146.3z
            M147.1,29.1c24.4,0,44,20.4,44,44s-20.4,44-44,44s-44-20.4-44-44S123.5,29.1,147.1,29.1z M147.1,482.1c-24.4,0-44-20.4-44-44
            c0-23.6,20.4-44,44-44s44,20.4,44,44C190.3,462.5,170.7,482.1,147.1,482.1z M365.7,190.3c-24.4,0-44-20.4-44-44s20.4-44,44-44
            s44,20.4,44,44C409.8,169.9,389.3,190.3,365.7,190.3z"/>
    </g>
</svg>
